<?xml version="1.0" standalone="no"?>
<!DOCTYPE svg PUBLIC "-//W3C//DTD SVG 20010904//EN"
 "http://www.w3.org/TR/2001/REC-SVG-20010904/DTD/svg10.dtd">
<svg version="1.0" xmlns="http://www.w3.org/2000/svg"
 width="512.000000pt" height="512.000000pt" viewBox="0 0 512.000000 512.000000"
 preserveAspectRatio="xMidYMid meet">
<metadata>
Created by potrace 1.14, written by Peter Selinger 2001-2017
</metadata>
<g transform="translate(0.000000,512.000000) scale(0.100000,-0.100000)"
fill="#000000" stroke="none">
<path d="M0 2560 l0 -2560 715 0 715 0 2 28 c1 15 1 38 0 51 -1 14 4 31 10 39
13 15 -4 32 -34 32 -17 0 -26 29 -10 31 36 7 58 5 65 -5 5 -6 6 -2 2 10 -8 29
39 62 61 43 20 -16 18 -28 -7 -38 -21 -7 -20 -8 8 -20 16 -7 34 -11 39 -10 21
4 33 -2 39 -20 6 -21 30 -31 95 -37 37 -4 49 -1 64 15 18 19 18 21 2 21 -9 0
-14 -4 -11 -10 3 -6 -1 -7 -9 -4 -9 3 -13 10 -10 15 3 5 -3 10 -13 11 -32 2
-37 4 -83 25 -25 12 -60 37 -77 56 l-32 35 22 19 c57 50 73 55 131 38 57 -17
106 -12 106 10 0 10 -10 12 -32 9 -24 -3 -40 1 -58 16 -17 15 -21 23 -12 27
20 8 14 18 -12 19 -15 1 -28 -6 -36 -21 -7 -13 -23 -29 -36 -36 -21 -11 -27
-10 -40 3 -13 13 -19 11 -50 -17 -19 -18 -53 -38 -75 -45 -22 -8 -43 -18 -46
-23 -3 -6 -1 -7 4 -4 15 9 55 -25 45 -39 -4 -7 -21 -9 -40 -6 -29 4 -33 8 -29
29 4 23 4 23 -16 6 -19 -18 -20 -17 -9 3 6 12 9 24 6 26 -2 3 2 11 11 18 22
18 18 37 -7 36 -20 -1 -23 5 -26 42 -3 36 0 42 16 42 33 0 36 30 6 61 -14 15
-23 32 -20 38 4 6 2 11 -3 11 -6 0 -11 7 -11 15 0 28 18 15 70 -49 59 -75 98
-101 119 -79 11 12 10 17 -2 31 -8 9 -24 36 -35 58 -12 23 -28 44 -37 47 -8 4
-15 13 -15 22 0 8 -4 15 -10 15 -5 0 -10 5 -10 12 0 7 25 -14 56 -45 31 -31
65 -57 75 -57 29 0 48 46 36 86 -8 25 -7 37 3 49 23 28 67 45 105 40 26 -3 35
0 35 10 0 8 4 15 9 15 5 0 11 9 14 20 3 11 11 19 17 18 14 -3 37 28 28 37 -10
10 -48 -14 -48 -30 0 -10 -11 -15 -35 -15 -38 0 -47 14 -15 23 11 3 20 12 20
20 0 11 14 16 50 19 28 1 50 0 50 -4 0 -5 5 -8 10 -8 6 0 10 11 10 25 0 25 2
26 42 20 l41 -6 321 320 321 321 265 -265 c146 -146 273 -265 282 -265 9 0 23
-8 30 -18 7 -9 28 -30 47 -45 19 -16 43 -40 54 -54 l20 -25 -320 -317 c-176
-175 -328 -330 -339 -346 -20 -31 -28 -65 -15 -65 5 0 9 -11 9 -24 0 -17 -7
-26 -22 -29 -11 -2 1 -5 27 -6 43 -1 48 1 42 18 -8 25 11 37 69 46 37 5 46 4
41 -6 -5 -8 -4 -10 4 -5 8 6 9 12 2 20 -12 14 -5 26 15 26 8 0 11 -6 7 -16 -5
-14 -3 -15 15 -5 22 12 45 45 37 53 -2 2 5 4 16 5 17 2 14 -6 -20 -45 -86 -98
-83 -92 -38 -92 31 0 121 88 1190 1159 l1157 1159 0 228 0 229 -1176 1173
-1177 1172 -1384 0 -1383 0 0 -2560z m2754 2274 c94 -92 175 -173 180 -181 15
-27 -10 -37 -47 -19 -48 22 -60 20 -80 -14 -12 -20 -26 -30 -42 -30 -13 0 -27
-4 -30 -10 -3 -5 -15 -10 -25 -10 -25 0 -29 -8 -34 -71 -3 -30 -8 -71 -12 -91
-5 -29 -2 -42 15 -64 11 -15 21 -39 21 -55 0 -34 41 -85 75 -93 29 -7 34 -36
6 -36 -11 0 -23 -4 -26 -10 -7 -12 -65 -13 -82 -2 -6 4 -15 21 -19 37 -8 31
-40 64 -62 65 -18 0 -26 -28 -12 -45 6 -8 9 -23 6 -33 -4 -11 -1 -31 5 -46 9
-20 9 -29 -1 -41 -12 -15 -41 -139 -41 -179 0 -10 9 -28 20 -40 10 -11 21 -32
23 -46 2 -18 11 -26 36 -31 58 -12 59 -23 7 -83 l-48 -56 -341 340 -341 341
40 32 c22 17 79 72 127 122 162 167 503 513 507 514 2 1 80 -74 175 -165z
m382 -387 l121 -125 -33 -26 c-41 -32 -48 -33 -42 -1 3 14 -3 36 -13 52 -11
15 -19 35 -19 43 -1 34 -16 43 -47 26 -17 -8 -33 -12 -36 -9 -4 3 -14 0 -23
-8 -14 -11 -20 -9 -43 19 -21 25 -29 29 -44 21 -13 -8 -24 -7 -43 5 -13 9 -24
21 -24 26 0 14 -40 23 -54 11 -12 -11 -76 6 -76 19 0 4 12 17 27 30 26 23 27
23 42 3 18 -21 41 -20 41 3 0 24 20 16 33 -13 19 -44 60 -71 50 -34 -3 12 3
24 17 34 17 12 21 22 16 42 -6 23 -4 25 11 16 10 -5 72 -66 139 -134z m-206
-122 c0 -8 -9 -15 -20 -15 -11 0 -20 7 -20 15 0 8 9 15 20 15 11 0 20 -7 20
-15z m210 -92 c0 -10 -62 -86 -89 -109 -40 -33 -48 -26 -28 24 9 22 14 42 11
44 -2 3 2 11 10 17 8 7 12 19 9 27 -3 8 3 21 13 28 15 12 22 11 46 -7 15 -11
28 -22 28 -24z m400 -197 c39 -40 102 -100 140 -132 39 -32 70 -66 70 -75 0
-10 8 -20 18 -24 11 -3 100 -88 199 -189 l180 -184 -339 -340 -340 -339 -339
338 c-186 186 -339 341 -339 344 0 6 672 675 678 675 1 0 34 -33 72 -74z
m-1750 -61 c36 -37 49 -55 37 -55 -9 0 -24 14 -32 30 -9 17 -27 36 -40 42 -13
6 -26 17 -29 24 -10 27 10 14 64 -41z m273 -262 c56 -54 120 -120 142 -147 43
-53 89 -100 127 -129 15 -12 19 -20 11 -23 -7 -3 -37 -26 -67 -51 l-55 -45
-31 19 c-27 15 -32 16 -40 3 -6 -10 -2 -25 11 -47 20 -33 20 -33 1 -60 -28
-39 -338 -343 -350 -343 -11 0 -1 55 16 87 17 32 16 36 -29 81 -41 40 -42 41
-25 67 19 29 32 31 57 9 24 -22 67 -11 71 18 3 23 32 35 101 43 62 7 98 35 62
49 -23 9 -19 39 5 33 24 -6 34 20 25 63 -5 23 -12 30 -30 30 -12 0 -28 7 -35
15 -16 19 -30 19 -30 -1 0 -26 -43 -12 -58 19 -16 32 -27 34 -42 7 -23 -44
-106 -5 -112 53 l-3 32 -127 0 c-71 0 -128 -4 -128 -8 0 -4 12 -13 28 -20 17
-8 26 -18 24 -29 -4 -20 15 -33 31 -20 14 10 118 9 136 -2 14 -9 15 -46 1 -46
-6 0 -19 6 -30 12 -15 10 -22 10 -32 0 -10 -10 -7 -17 17 -37 23 -19 26 -24
13 -25 -27 0 -22 -17 10 -32 15 -7 28 -23 30 -36 3 -19 -1 -22 -28 -22 -43 0
-69 -33 -70 -87 0 -37 -3 -42 -31 -52 -25 -8 -30 -15 -27 -35 2 -19 -6 -33
-31 -54 -30 -25 -33 -30 -22 -50 7 -13 11 -37 9 -54 -3 -30 -13 -22 -283 245
l-280 277 50 46 c28 26 86 82 131 126 44 43 83 78 87 78 4 0 4 -18 1 -40 -8
-50 4 -51 58 -9 35 29 41 30 55 17 12 -12 13 -20 4 -36 -9 -16 -8 -24 5 -36
19 -20 45 -21 38 -2 -4 11 0 13 14 9 14 -3 24 2 32 17 9 16 18 20 35 16 18 -5
28 0 44 23 12 16 21 40 21 54 0 20 8 27 48 39 26 9 49 14 51 12 2 -2 -10 -20
-27 -42 -17 -21 -32 -43 -34 -49 -2 -6 15 -23 36 -38 31 -21 46 -25 73 -20 38
7 52 28 33 50 -10 12 -7 17 16 26 21 8 34 7 47 -1 15 -9 24 -8 40 4 63 43 78
62 84 104 3 23 10 42 15 42 4 0 55 -44 111 -97z m-213 -3 c0 -5 -7 -10 -15
-10 -8 0 -15 5 -15 10 0 6 7 10 15 10 8 0 15 -4 15 -10z m2621 -562 c57 -56
210 -206 339 -334 l235 -233 -342 -344 -343 -343 -222 225 c-123 124 -276 279
-340 345 l-118 118 338 334 c185 184 340 334 343 334 3 0 53 -46 110 -102z
m-3546 -101 c20 -28 373 -386 427 -432 26 -22 56 -53 68 -68 l21 -27 -163
-166 c-158 -162 -374 -364 -388 -364 -4 0 -5 14 -2 30 3 20 -2 37 -12 49 -13
14 -14 21 -5 26 8 5 10 25 6 63 -4 36 -1 70 9 99 14 40 14 47 0 62 -22 25 -20
51 4 51 25 0 27 31 3 67 -13 19 -14 28 -5 31 17 5 15 22 -3 22 -8 0 -15 8 -15
19 0 10 -7 24 -15 31 -12 10 -16 7 -25 -16 -22 -62 -42 -77 -48 -36 -2 13 -10
26 -18 29 -10 4 -12 20 -9 66 4 52 3 58 -6 35 -6 -16 -18 -28 -29 -28 -13 0
-19 10 -23 45 -7 70 -22 75 -37 12 -6 -30 -3 -42 27 -86 19 -28 39 -51 44 -51
13 0 11 -34 -3 -48 -10 -10 -10 -17 1 -33 8 -14 9 -25 3 -31 -13 -13 -88 46
-96 76 -3 11 -21 31 -40 44 -49 33 -61 88 -35 156 23 63 25 148 3 170 -8 9
-26 16 -39 16 -35 0 -55 10 -55 29 1 21 86 111 106 111 28 0 52 19 58 46 4 15
34 55 68 90 l61 63 74 -66 c41 -37 81 -75 88 -86z m1679 106 c22 -20 175 -169
339 -331 l299 -295 -343 -343 -343 -343 -130 132 c-71 73 -224 227 -339 344
l-209 212 245 243 c344 341 423 418 432 418 4 0 26 -16 49 -37z m-2093 -494
c8 -15 8 -24 0 -32 -14 -14 -57 25 -47 42 11 18 34 13 47 -10z m-11 -169 c0
-5 -4 -10 -10 -10 -5 0 -10 5 -10 10 0 6 5 10 10 10 6 0 10 -4 10 -10z m-70
-14 c0 -15 -18 -31 -26 -23 -7 7 7 37 17 37 5 0 9 -6 9 -14z m144 -31 c11 -8
30 -15 42 -15 25 0 28 -3 38 -41 6 -26 4 -27 -40 -31 -55 -4 -74 5 -74 37 0
13 -5 27 -10 30 -8 5 -7 11 1 21 14 17 19 17 43 -1z m-154 -39 c0 -8 -4 -18
-10 -21 -5 -3 -10 3 -10 14 0 12 5 21 10 21 6 0 10 -6 10 -14z m345 -96 c26
-51 28 -70 8 -70 -11 0 -24 -5 -30 -11 -18 -18 -26 9 -13 42 11 25 10 32 -4
48 -9 9 -16 26 -16 36 0 17 1 17 21 -1 12 -10 27 -30 34 -44z m3032 -299 l341
-339 -333 -334 c-183 -183 -335 -340 -338 -348 -3 -10 -118 98 -354 333 l-349
348 275 272 c151 150 304 302 340 339 36 37 69 67 72 67 3 1 159 -152 346
-338z m-3267 274 c28 -30 45 -31 67 -5 22 26 48 25 74 -1 14 -14 17 -24 11
-32 -5 -7 -10 -24 -10 -39 0 -15 -11 -41 -26 -58 -19 -24 -26 -43 -26 -75 0
-24 -5 -47 -11 -50 -11 -7 -111 83 -172 155 l-38 45 23 15 c13 8 34 27 48 41
32 34 32 34 60 4z m1464 -314 l339 -338 -340 -341 -339 -341 -343 341 -343
342 339 337 c186 185 340 337 343 337 3 1 157 -151 344 -337z m774 -353 c9 -9
8 -16 -5 -30 -31 -34 -63 -17 -37 20 17 25 25 27 42 10z m1543 -31 c-16 -24
-37 -50 -46 -57 -16 -13 -17 -11 -12 30 3 25 6 46 6 48 1 1 6 2 12 2 5 0 7 -5
4 -10 -4 -6 8 -2 27 10 18 11 34 20 36 20 2 0 -10 -19 -27 -43z m-491 -487 c0
-10 -380 -392 -415 -416 -23 -16 -49 -19 -40 -4 9 14 -33 47 -67 55 -15 4 -30
10 -33 15 -6 10 52 53 63 46 4 -2 35 4 67 15 33 11 68 21 78 22 9 1 17 5 17
10 0 4 4 6 9 3 5 -3 15 2 22 11 11 13 11 17 2 20 -19 7 -16 30 8 54 15 15 24
18 28 10 9 -14 41 -3 41 14 0 7 7 25 14 41 8 15 13 31 10 35 -3 5 4 14 15 20
10 7 17 19 14 26 -3 7 2 13 11 13 9 0 16 -4 16 -9 0 -4 28 0 63 10 75 21 77
22 77 9z m-240 -71 c0 -24 -4 -30 -17 -27 -17 4 -19 22 -8 56 8 23 25 2 25
-29z m-214 -14 c43 -1 77 -26 80 -61 6 -49 7 -53 18 -51 5 1 12 -6 14 -16 3
-16 0 -18 -20 -12 -26 9 -38 23 -38 47 0 32 -12 48 -36 48 -17 0 -22 4 -17 15
3 9 -8 2 -25 -15 -17 -16 -38 -30 -47 -30 -14 0 -16 -6 -11 -30 4 -22 2 -29
-6 -24 -7 5 -9 2 -5 -8 6 -17 -10 -38 -30 -38 -20 0 -15 27 10 51 12 12 16 19
10 15 -8 -4 -13 -1 -13 8 0 9 4 16 9 16 5 0 12 7 15 16 4 12 -4 9 -28 -10 -33
-24 -73 -36 -62 -17 3 4 -7 6 -22 4 -25 -3 -26 -3 -8 9 11 7 36 28 57 46 20
18 43 30 51 27 7 -3 22 1 33 9 11 8 24 11 30 8 5 -3 23 -6 41 -7z m-2142 -294
c16 -17 16 -19 0 -25 -20 -8 -50 17 -40 33 10 16 20 14 40 -8z m2001 9 c-3 -5
-11 -10 -16 -10 -6 0 -7 5 -4 10 3 6 11 10 16 10 6 0 7 -4 4 -10z m106 -29 c6
10 9 8 9 -8 0 -12 5 -25 10 -28 6 -3 10 -11 10 -16 0 -6 -5 -7 -12 -3 -7 4 -8
3 -4 -5 9 -14 -50 -78 -96 -105 -17 -11 -28 -14 -24 -7 10 16 -3 14 -20 -4 -9
-8 -11 -15 -4 -15 25 0 -30 -72 -142 -184 -106 -106 -121 -117 -145 -112 -21
6 -32 1 -57 -26 -25 -28 -31 -30 -34 -15 -2 10 2 24 8 32 10 12 8 15 -12 15
-13 0 -28 -4 -33 -9 -6 -4 -27 -11 -47 -14 -72 -11 -58 17 73 149 68 68 127
120 133 117 6 -3 8 -2 3 2 -8 9 40 65 55 65 5 0 7 -4 4 -9 -3 -5 2 -19 12 -31
13 -16 31 -23 67 -26 46 -3 50 -2 87 38 21 23 38 47 38 54 0 6 13 17 29 22 37
13 54 44 46 82 -5 21 -2 31 12 39 12 7 19 6 22 -1 2 -6 7 -5 12 3z m-101 -81
c0 -5 -4 -10 -10 -10 -5 0 -10 5 -10 10 0 6 5 10 10 10 6 0 10 -4 10 -10z
m-146 -45 c4 -10 -1 -15 -14 -15 -20 0 -26 11 -13 23 10 11 20 8 27 -8z m-20
-50 c4 -10 -1 -15 -14 -15 -20 0 -26 11 -13 23 10 11 20 8 27 -8z m-1714 -320
c0 -8 -9 -19 -20 -25 -14 -8 -20 -8 -20 0 0 6 -4 8 -10 5 -5 -3 -10 -2 -10 3
0 8 36 30 53 31 4 1 7 -6 7 -14z m35 -86 c0 -18 -6 -25 -24 -27 -38 -6 -50 16
-22 39 30 24 46 20 46 -12z m-109 -17 c1 -7 0 -8 -3 -2 -3 8 -9 7 -19 -1 -8
-6 -14 -7 -14 -2 0 24 31 28 36 5z"/>
<path d="M2300 4636 c0 -14 5 -26 10 -26 6 0 10 9 10 19 0 11 -4 23 -10 26 -6
4 -10 -5 -10 -19z"/>
<path d="M2100 4461 c0 -5 -9 -13 -20 -16 -11 -3 -20 -12 -20 -20 0 -8 -9 -17
-20 -20 -11 -3 -20 -11 -20 -16 0 -17 35 -9 73 16 32 22 36 29 27 45 -11 21
-20 26 -20 11z"/>
<path d="M2210 4110 c0 -15 5 -31 12 -38 13 -13 50 -16 61 -6 12 12 -6 34 -29
34 -12 0 -28 8 -33 18 -9 15 -10 14 -11 -8z"/>
<path d="M2196 3444 c-25 -18 -8 -39 23 -29 24 7 27 18 8 33 -8 7 -18 6 -31
-4z"/>
<path d="M1455 3421 c-8 -26 1 -39 16 -24 8 8 8 17 1 29 -9 16 -10 15 -17 -5z"/>
<path d="M967 2513 c-8 -84 -5 -118 13 -118 21 0 35 89 20 138 -6 20 -15 37
-19 37 -5 0 -11 -26 -14 -57z"/>
<path d="M3659 4559 c309 -309 565 -559 568 -555 4 3 -2 13 -13 21 -10 8 -14
15 -9 15 11 0 65 -54 65 -66 0 -4 -9 1 -20 11 -37 33 -20 6 27 -45 26 -27 51
-50 57 -50 6 0 5 5 -2 12 -7 7 -12 16 -12 21 0 5 7 1 16 -7 8 -9 12 -20 9 -26
-9 -14 22 -43 36 -34 8 4 9 3 5 -5 -9 -14 20 -45 34 -36 5 3 7 0 5 -7 -7 -17
50 -73 64 -64 7 5 8 1 4 -10 -5 -14 -3 -16 11 -11 10 4 15 3 11 -3 -9 -15 132
-153 146 -144 8 4 9 3 5 -4 -9 -15 68 -97 83 -88 7 5 8 1 4 -10 -5 -13 -3 -16
10 -11 12 4 14 2 10 -10 -5 -13 -2 -15 11 -10 10 4 15 3 11 -3 -9 -15 242
-263 256 -254 8 4 9 3 5 -4 -6 -10 43 -72 58 -72 3 0 6 60 6 133 l0 132 -874
874 c-621 621 -878 872 -890 868 -11 -4 12 -33 90 -113 61 -63 100 -110 94
-114 -13 -8 -3 -38 24 -69 17 -20 18 -23 4 -18 -12 4 -15 2 -11 -9 3 -8 -1
-14 -10 -14 -25 0 -27 -27 -4 -47 l22 -18 -20 25 -20 25 22 -19 c13 -10 20
-22 17 -27 -4 -7 316 -340 484 -502 34 -34 62 -68 62 -76 0 -9 -224 208 -498
482 -273 273 -501 497 -506 497 -4 0 245 -253 553 -561z m485 -444 c4 -13 2
-14 -14 -5 -23 13 -26 20 -6 20 8 0 16 -7 20 -15z m41 -45 c10 -11 14 -20 8
-20 -5 0 -18 9 -28 20 -10 11 -14 20 -8 20 5 0 18 -9 28 -20z"/>
<path d="M3268 5113 c6 -2 18 -2 25 0 6 3 1 5 -13 5 -14 0 -19 -2 -12 -5z"/>
<path d="M3500 4915 c13 -14 26 -23 28 -20 5 5 -36 45 -46 45 -3 0 5 -11 18
-25z"/>
<path d="M4109 998 l-995 -999 143 3 143 3 860 860 860 860 0 137 c0 76 -3
137 -7 136 -5 -1 -456 -451 -1004 -1000z"/>
<path d="M2255 370 c115 -116 212 -210 215 -210 3 0 -90 94 -205 210 -115 116
-212 210 -215 210 -3 0 90 -94 205 -210z"/>
<path d="M1907 465 c-15 -10 -16 -18 -9 -32 10 -16 12 -15 22 11 13 35 11 38
-13 21z"/>
<path d="M1777 265 c-28 -59 -20 -115 16 -115 11 0 18 3 15 6 -3 3 6 18 20 33
15 15 34 37 43 50 l15 24 21 -22 c18 -20 22 -20 36 -7 8 8 16 14 19 13 2 -1
-8 8 -22 20 -30 27 -38 28 -68 7 -30 -21 -78 -15 -74 9 4 26 -3 20 -21 -18z"/>
<path d="M2023 273 c-28 -5 -30 -19 -4 -26 13 -3 21 1 24 14 3 11 4 18 4 18
-1 -1 -12 -4 -24 -6z"/>
<path d="M2170 203 c0 -11 -60 -23 -112 -24 -16 0 -28 -4 -28 -9 0 -6 7 -10
15 -10 8 0 15 -3 15 -7 0 -6 67 -8 133 -4 5 1 5 11 2 24 -8 26 -25 46 -25 30z"/>
<path d="M2480 146 c0 -2 8 -10 18 -17 15 -13 16 -12 3 4 -13 16 -21 21 -21
13z"/>
<path d="M1898 133 c7 -3 16 -2 19 1 4 3 -2 6 -13 5 -11 0 -14 -3 -6 -6z"/>
<path d="M1493 58 c3 -12 2 -30 -4 -40 -8 -16 -6 -18 21 -18 27 0 30 3 30 34
0 22 -6 36 -16 40 -28 11 -36 6 -31 -16z"/>
<path d="M1810 20 c-8 -15 -8 -20 3 -20 14 0 37 19 37 32 0 16 -30 7 -40 -12z"/>
</g>
</svg>
